<svg width="33" height="25" viewBox="0 0 33 25" fill="none" xmlns="http://www.w3.org/2000/svg">
<path d="M0 2.5C0 1.39375 0.585268 0.5 1.92857 0.5H31.0714C32.4147 0.5 33 1.39375 33 2.5C33 3.60625 32.4147 4.5 31.0714 4.5H1.92857C0.585268 4.5 0 3.60625 0 2.5ZM6 12C6 10.8937 6.58527 10 7.92857 10H31.0714C32.4147 10 33 10.8937 33 12C33 13.1063 32.4147 14 31.0714 14H7.92857C6.58527 14 6 13.1063 6 12ZM33 22.5C33 23.6063 32.4147 24.5 31.0714 24.5H1.92857C0.585268 24.5 0 23.6063 0 22.5C0 21.3937 0.585268 20.5 1.92857 20.5H31.0714C32.4147 20.5 33 21.3937 33 22.5Z" fill="black"/>
</svg>
