<svg width="28" height="30" viewBox="0 0 28 30" fill="none" xmlns="http://www.w3.org/2000/svg">
<path d="M24.7237 16.6163C24.2187 16.2458 23.9169 15.6508 23.9169 15.024C23.9169 14.3971 24.2187 13.8021 24.723 13.4323L27.0563 11.7217C27.4281 11.4483 27.5819 10.9673 27.4366 10.5289C26.836 8.72404 25.8861 7.07788 24.6125 5.635C24.3058 5.28934 23.8114 5.18025 23.3885 5.36584L20.7613 6.52113C20.189 6.77329 19.5224 6.73717 18.9791 6.42338C18.4366 6.11029 18.0725 5.55213 18.0038 4.9295L17.6878 2.04517C17.6376 1.58617 17.2961 1.21217 16.8442 1.11938C15.0047 0.743252 13.0716 0.736877 11.1995 1.11229C10.7448 1.20367 10.4026 1.57767 10.3523 2.03879L10.0393 4.90471C9.97056 5.52804 9.60647 6.08621 9.06247 6.39929C8.51989 6.71238 7.85547 6.74992 7.28101 6.49704L4.63964 5.33538C4.22031 5.14979 3.72447 5.25746 3.41776 5.60242C2.13993 7.03963 1.18581 8.68367 0.578763 10.4871C0.43143 10.9248 0.58443 11.4086 0.957722 11.6828L3.2761 13.3828C3.78185 13.7539 4.0836 14.3489 4.0836 14.9758C4.0836 15.6027 3.78185 16.1977 3.27751 16.5674L0.944263 18.278C0.572388 18.5515 0.41868 19.0324 0.563888 19.4709C1.16456 21.2757 2.11443 22.9219 3.38801 24.3648C3.69472 24.7111 4.19056 24.8209 4.61201 24.6339L7.23922 23.4786C7.81156 23.2265 8.47739 23.2626 9.02139 23.5764C9.56397 23.8895 9.92805 24.4476 9.99676 25.0703L10.3127 27.9546C10.363 28.4136 10.7044 28.7876 11.1563 28.8804C12.0871 29.0702 13.0433 29.1665 14.0003 29.1665C14.9338 29.1665 15.8759 29.0723 16.8003 28.8868C17.2551 28.7954 17.5972 28.4214 17.6475 27.9603L17.9613 25.0943C18.03 24.471 18.3941 23.9128 18.9381 23.5998C19.4806 23.2874 20.1458 23.2505 20.7195 23.502L23.3609 24.6637C23.7816 24.85 24.2761 24.7423 24.5828 24.3966C25.8606 22.9594 26.8147 21.3154 27.4218 19.512C27.5691 19.0742 27.4161 18.5904 27.0428 18.3163L24.7237 16.6163ZM14.0003 19.9582C11.2618 19.9582 9.04193 17.7383 9.04193 14.9999C9.04193 12.2615 11.2618 10.0415 14.0003 10.0415C16.7387 10.0415 18.9586 12.2615 18.9586 14.9999C18.9586 17.7383 16.7387 19.9582 14.0003 19.9582Z" fill="#0077B6"/>
</svg>
