<svg width="43" height="43" viewBox="0 0 43 43" fill="none" xmlns="http://www.w3.org/2000/svg">
<path d="M2.98159 19.6383C1.81721 19.6383 0.873287 20.5822 0.873301 21.7466C0.873287 22.911 1.81721 23.8549 2.98159 23.8549L19.6383 23.8548L19.6384 40.5116C19.6382 41.6759 20.5822 42.6198 21.7466 42.6199C22.911 42.6199 23.8549 41.676 23.8549 40.5116L23.8549 23.8549L40.5116 23.8548C41.6759 23.8549 42.6198 22.911 42.6198 21.7466C42.6198 20.5822 41.6759 19.6382 40.5116 19.6384L23.8549 19.6382L23.8549 2.9816C23.8549 1.8172 22.911 0.873282 21.7466 0.873312C20.5822 0.873327 19.6382 1.81725 19.6384 2.98151L19.6383 19.6384L2.98159 19.6383Z" fill="#0077B6"/>
</svg>
